<?xml version="1.0" encoding="iso-8859-1"?>
<!-- Generator: Adobe Illustrator 19.0.0, SVG Export Plug-In . SVG Version: 6.00 Build 0)  -->
<svg version="1.1" id="Layer_1" xmlns="http://www.w3.org/2000/svg" xmlns:xlink="http://www.w3.org/1999/xlink" x="0px" y="0px"
	 viewBox="0 0 512 512" style="enable-background:new 0 0 512 512;" xml:space="preserve">
<g>
	<g>
		<path d="M459.216,184.742V77.791L348.234,0H52.783v184.742H26.392v205.856h26.392V512h406.433V390.598h26.392V184.742H459.216z
			 M353.649,23.151l72.278,50.746h-72.278V23.151z M68.618,15.835h269.196v73.897h105.567v95.01H68.618V15.835z M443.381,496.165
			H68.618V390.598h374.763V496.165z M469.773,374.763H42.227V200.577h427.546V374.763z"/>
	</g>
</g>
<g>
	<g>
		<rect x="113.485" y="432.825" width="285.031" height="15.835"/>
	</g>
</g>
<g>
	<g>
		<rect x="435.464" y="216.412" width="21.113" height="15.835"/>
	</g>
</g>
<g>
	<g>
		<rect x="435.464" y="343.093" width="21.113" height="15.835"/>
	</g>
</g>
<g>
	<g>
		<rect x="55.423" y="343.093" width="21.113" height="15.835"/>
	</g>
</g>
<g>
	<g>
		<rect x="55.423" y="216.412" width="21.113" height="15.835"/>
	</g>
</g>
<g>
	<g>
		<path d="M366.845,279.753h-21.113c-10.186,0-18.474-8.288-18.474-18.474c0-10.186,8.288-18.474,18.474-18.474h21.113
			c10.186,0,18.474,8.288,18.474,18.474h15.835c0-18.919-15.392-34.309-34.309-34.309h-21.113
			c-18.918,0-34.309,15.391-34.309,34.309c0,18.919,15.392,34.309,34.309,34.309h21.113c10.186,0,18.474,8.288,18.474,18.474
			c0,10.186-8.288,18.474-18.474,18.474h-21.113c-10.186,0-18.474-8.288-18.474-18.474h-15.835
			c0,18.919,15.392,34.309,34.309,34.309h21.113c18.918,0,34.309-15.391,34.309-34.309
			C401.155,295.143,385.763,279.753,366.845,279.753z"/>
	</g>
</g>
<g>
	<g>
		<path d="M261.278,279.753h-21.113c-10.186,0-18.474-8.288-18.474-18.474c0-10.186,8.288-18.474,18.474-18.474h21.113
			c10.186,0,18.474,8.288,18.474,18.474h15.835c0-18.919-15.392-34.309-34.309-34.309h-21.113
			c-18.918,0-34.309,15.391-34.309,34.309c0,18.919,15.392,34.309,34.309,34.309h21.113c10.186,0,18.474,8.288,18.474,18.474
			c0,10.186-8.288,18.474-18.474,18.474h-21.113c-10.186,0-18.474-8.288-18.474-18.474h-15.835
			c0,18.919,15.392,34.309,34.309,34.309h21.113c18.918,0,34.309-15.391,34.309-34.309
			C295.588,295.143,280.196,279.753,261.278,279.753z"/>
	</g>
</g>
<g>
	<g>
		<path d="M142.515,337.814c-17.463,0-31.67-14.207-31.67-31.67v-31.67c0-17.463,14.207-31.67,31.67-31.67s31.67,14.207,31.67,31.67
			h15.835c0-26.194-21.311-47.505-47.505-47.505c-26.194,0-47.505,21.311-47.505,47.505v31.67c0,26.194,21.311,47.505,47.505,47.505
			c26.194,0,47.505-21.311,47.505-47.505h-15.835C174.186,323.607,159.978,337.814,142.515,337.814z"/>
	</g>
</g>
<g>
	<g>
		<polygon points="137.557,76.857 126.361,65.658 86.453,105.567 126.361,145.476 137.557,134.277 108.846,105.567 		"/>
	</g>
</g>
<g>
	<g>
		<rect x="145.155" y="100.289" width="17.155" height="15.835"/>
	</g>
</g>
<g>
	<g>
		<rect x="170.881" y="100.289" width="17.155" height="15.835"/>
	</g>
</g>
<g>
	<g>
		<rect x="196.619" y="100.289" width="17.155" height="15.835"/>
	</g>
</g>
<g>
	<g>
		<polygon points="231.907,65.658 220.711,76.857 249.422,105.567 220.711,134.277 231.907,145.476 271.815,105.567 		"/>
	</g>
</g>
<g>
</g>
<g>
</g>
<g>
</g>
<g>
</g>
<g>
</g>
<g>
</g>
<g>
</g>
<g>
</g>
<g>
</g>
<g>
</g>
<g>
</g>
<g>
</g>
<g>
</g>
<g>
</g>
<g>
</g>
</svg>
