<?xml version="1.0" encoding="iso-8859-1"?>
<!-- Generator: Adobe Illustrator 19.0.0, SVG Export Plug-In . SVG Version: 6.00 Build 0)  -->
<svg version="1.1" id="Layer_1" xmlns="http://www.w3.org/2000/svg" xmlns:xlink="http://www.w3.org/1999/xlink" x="0px" y="0px"
	 viewBox="0 0 512 512" style="enable-background:new 0 0 512 512;" xml:space="preserve">
<g>
	<g>
		<path d="M459.216,184.742V77.791L348.234,0H52.783v184.742H26.392v205.856h26.392V512h406.433V390.598h26.392V184.742H459.216z
			 M353.649,23.151l72.278,50.746h-72.278V23.151z M68.618,15.835h269.196v73.897h105.567v95.01H68.618V15.835z M443.381,496.165
			H68.618V390.598h374.763V496.165z M469.773,374.763H42.227V200.577h427.546V374.763z"/>
	</g>
</g>
<g>
	<g>
		<rect x="113.485" y="432.825" width="285.031" height="15.835"/>
	</g>
</g>
<g>
	<g>
		<rect x="435.464" y="216.412" width="21.113" height="15.835"/>
	</g>
</g>
<g>
	<g>
		<rect x="435.464" y="343.093" width="21.113" height="15.835"/>
	</g>
</g>
<g>
	<g>
		<rect x="55.423" y="343.093" width="21.113" height="15.835"/>
	</g>
</g>
<g>
	<g>
		<rect x="55.423" y="216.412" width="21.113" height="15.835"/>
	</g>
</g>
<g>
	<g>
		<polygon points="155.646,66.66 145.22,54.742 96.182,97.649 145.22,140.557 155.646,128.639 120.23,97.649 		"/>
	</g>
</g>
<g>
	<g>
		
			<rect x="133.045" y="92.378" transform="matrix(0.2316 -0.9728 0.9728 0.2316 48.4417 261.9184)" width="113.948" height="15.835"/>
	</g>
</g>
<g>
	<g>
		<polygon points="240.099,54.742 229.674,66.66 265.089,97.649 229.674,128.639 240.099,140.557 289.137,97.649 		"/>
	</g>
</g>
<g>
	<g>
		<polygon points="155.711,229.608 155.711,277.113 116.124,277.113 116.124,229.608 100.289,229.608 100.289,340.454 
			116.124,340.454 116.124,292.948 155.711,292.948 155.711,340.454 171.546,340.454 171.546,229.608 		"/>
	</g>
</g>
<g>
	<g>
		<polygon points="182.103,230.928 182.103,246.763 206.515,246.763 206.515,340.454 222.35,340.454 222.35,246.763 
			246.763,246.763 246.763,230.928 		"/>
	</g>
</g>
<g>
	<g>
		<path d="M334.515,226.309c-5.114,0-8.363,3.819-13.714,12.382c-2.96,4.735-6.709,11.287-11.145,19.476
			c-2.646,4.884-5.231,9.789-7.471,14.099c-2.24-4.309-4.826-9.215-7.471-14.099c-4.435-8.189-8.185-14.741-11.145-19.476
			c-5.351-8.562-8.601-12.382-13.714-12.382c-8.142,0-12.536,6.459-12.536,12.536v101.608h15.835v-88.385
			c6.18,10.592,14.73,26.683,21.949,41.122l7.081,14.162l7.081-14.162c7.22-14.438,15.77-30.53,21.949-41.122v88.385h15.835V238.845
			C347.052,232.768,342.658,226.309,334.515,226.309z"/>
	</g>
</g>
<g>
	<g>
		<polygon points="374.763,323.299 374.763,229.608 358.928,229.608 358.928,339.134 417.649,339.134 417.649,323.299 		"/>
	</g>
</g>
<g>
</g>
<g>
</g>
<g>
</g>
<g>
</g>
<g>
</g>
<g>
</g>
<g>
</g>
<g>
</g>
<g>
</g>
<g>
</g>
<g>
</g>
<g>
</g>
<g>
</g>
<g>
</g>
<g>
</g>
</svg>
